<?xml version="1.0" standalone="no"?>
<!DOCTYPE svg PUBLIC "-//W3C//DTD SVG 20010904//EN"
 "http://www.w3.org/TR/2001/REC-SVG-20010904/DTD/svg10.dtd">
<svg version="1.0" xmlns="http://www.w3.org/2000/svg"
 width="451.000000pt" height="452.000000pt" viewBox="0 0 451.000000 452.000000"
 preserveAspectRatio="xMidYMid meet">

<g transform="translate(0.000000,452.000000) scale(0.100000,-0.100000)"
fill="#FFFFFF" stroke="none">
<path d="M2200 4491 l-55 -6 40 -14 c59 -20 62 -24 30 -37 -17 -7 -23 -13 -14
-14 9 0 33 7 53 15 20 9 41 13 46 10 6 -4 10 -3 10 2 0 9 -46 54 -51 51 -2 -1
-29 -4 -59 -7z"/>
<path d="M1915 4464 c-164 -22 -304 -54 -400 -90 -112 -44 -246 -115 -242
-128 4 -13 -71 -48 -84 -40 -6 3 -15 1 -22 -4 -7 -6 -52 -22 -100 -37 -49 -15
-91 -33 -93 -40 -3 -8 -30 -32 -60 -55 -30 -22 -54 -47 -54 -55 0 -7 -10 -15
-22 -17 -19 -2 -22 -8 -20 -32 5 -43 -48 -90 -61 -53 -5 16 -99 -65 -175 -150
-80 -91 -170 -219 -227 -324 -28 -51 -51 -85 -55 -78 -4 6 -18 -19 -31 -56
-16 -44 -31 -70 -44 -75 -14 -5 -32 -42 -64 -129 -36 -100 -43 -129 -38 -165
5 -32 2 -47 -8 -56 -53 -44 -102 -395 -60 -430 11 -9 15 -34 15 -104 l-1 -91
-19 24 c-11 13 -20 35 -20 49 0 14 -2 23 -4 21 -3 -2 -1 -90 3 -194 7 -164 11
-197 30 -240 12 -27 27 -52 33 -56 7 -5 11 -31 9 -70 -2 -52 0 -61 13 -56 10
4 20 -1 26 -13 14 -27 13 -37 -9 -59 -19 -19 -18 -21 40 -128 34 -61 77 -125
100 -147 35 -33 40 -43 36 -70 -3 -23 4 -44 28 -81 39 -61 125 -206 125 -211
0 -13 -32 0 -44 18 -12 17 -16 19 -16 6 0 -24 76 -122 164 -212 43 -44 85 -90
93 -103 9 -13 29 -25 51 -29 21 -4 47 -16 60 -27 26 -24 29 -57 5 -57 -30 0
55 -78 162 -147 55 -36 103 -70 106 -75 3 -5 35 -27 70 -49 48 -29 74 -39 104
-38 l40 0 -42 13 c-45 15 -103 52 -103 67 0 14 43 10 64 -6 23 -17 36 -19 36
-5 0 6 -6 10 -14 10 -17 0 -66 38 -66 52 0 6 11 8 26 5 18 -3 24 -1 20 9 -3 7
-1 16 4 19 19 12 9 24 -27 35 -46 12 -65 28 -129 105 -60 72 -112 147 -139
200 -11 21 -44 62 -73 89 -30 28 -85 83 -123 121 -39 39 -67 62 -64 53 5 -13
1 -20 -15 -26 l-21 -8 20 -18 c24 -22 29 -45 6 -26 -30 25 -14 -7 33 -63 47
-58 123 -117 149 -117 7 0 13 -10 13 -23 0 -13 4 -27 8 -32 5 -6 13 -22 20
-37 9 -23 9 -28 -3 -28 -21 0 -188 138 -204 168 -20 38 -65 95 -148 186 -40
43 -73 83 -73 87 0 5 20 9 45 9 36 0 45 3 45 18 0 30 -38 80 -79 106 -55 35
-66 58 -45 97 9 18 13 41 10 56 -6 23 -6 24 19 7 20 -13 25 -14 25 -2 0 16
-14 35 -49 63 l-24 20 5 -37 c5 -43 0 -46 -32 -18 -13 11 -28 20 -35 20 -31 0
-47 39 -49 117 -3 91 -37 215 -71 255 -38 44 -46 93 -13 72 7 -5 22 -9 32 -9
13 0 23 -11 31 -35 9 -25 17 -34 30 -32 10 2 22 -2 26 -10 19 -29 9 13 -13 55
-11 23 -22 56 -24 74 -2 17 -12 49 -23 70 l-20 38 6 -35 6 -35 -30 28 c-25 24
-31 38 -36 90 -4 34 -11 96 -16 137 -6 41 -13 176 -17 300 -6 204 -5 223 9
204 9 -11 19 -33 23 -48 5 -20 9 -24 19 -16 7 6 24 8 38 5 19 -5 28 -2 36 13
19 35 13 61 -18 76 -28 15 -29 15 -36 -12 -13 -47 -17 -6 -6 55 15 77 119 330
149 360 18 18 22 30 17 53 -8 35 18 83 68 127 39 35 54 64 62 125 6 43 11 50
73 98 36 28 79 54 94 57 55 11 80 70 63 151 -5 22 -2 40 9 57 20 31 51 34 43
4 -6 -22 0 -19 52 26 l23 20 -7 -25 c-4 -14 -16 -37 -27 -53 -11 -15 -18 -35
-15 -45 3 -13 6 -12 15 10 6 14 43 61 81 104 39 42 71 83 71 90 0 26 163 145
197 144 5 0 -14 -21 -42 -46 -40 -36 -44 -43 -20 -31 44 22 147 99 215 162 62
57 117 78 150 57 22 -14 76 17 92 54 12 26 54 54 81 54 8 0 17 -9 20 -19 4
-17 11 -19 48 -14 24 3 82 18 129 33 139 46 213 62 257 57 34 -4 42 -1 46 14
5 17 -1 19 -51 18 -32 -1 -102 -7 -157 -15z"/>
<path d="M2463 4460 c-4 -4 -32 -15 -62 -25 -44 -14 -51 -19 -37 -27 12 -7 24
-5 41 6 30 20 59 11 52 -16 -4 -15 -2 -18 11 -13 69 29 71 29 91 11 19 -17 23
-18 61 -2 72 29 160 13 160 -30 0 -16 36 -20 42 -4 3 10 45 -2 190 -53 15 -5
43 -24 62 -43 29 -28 39 -32 58 -25 l23 9 -26 10 c-14 6 -31 24 -38 40 -10 24
-20 31 -52 36 -58 9 -160 46 -190 69 -35 25 -111 39 -175 31 -36 -4 -62 -1
-85 9 -40 18 -114 28 -126 17z"/>
<path d="M2185 4380 c-4 -6 3 -10 14 -10 25 0 27 6 6 13 -8 4 -17 2 -20 -3z"/>
<path d="M3298 4143 c34 -27 63 -56 65 -65 3 -11 15 -18 29 -18 12 0 38 -9 56
-20 61 -37 55 -20 -18 48 -83 77 -123 102 -163 102 -27 0 -25 -3 31 -47z"/>
<path d="M3648 3881 c19 -45 42 -66 42 -37 0 9 -14 30 -30 48 l-30 33 18 -44z"/>
<path d="M3803 3741 c0 -20 9 -34 32 -49 57 -39 78 -17 28 29 -56 50 -60 52
-60 20z"/>
<path d="M3870 3611 c0 -13 13 -26 36 -37 40 -19 75 -82 78 -137 1 -19 11 -37
31 -53 16 -13 31 -22 33 -20 3 4 -53 152 -79 209 -7 15 -18 27 -26 27 -8 0
-27 7 -43 15 -28 15 -30 14 -30 -4z"/>
<path d="M1740 3218 l1 -323 42 -31 c63 -47 129 -78 256 -118 122 -38 138 -47
152 -83 6 -17 16 -23 39 -23 l31 0 -3 318 -3 319 -28 36 c-34 45 -103 81 -262
137 -66 23 -141 53 -167 66 -26 13 -50 24 -53 24 -3 0 -5 -145 -5 -322z"/>
<path d="M2789 3515 c-25 -13 -98 -42 -161 -64 -129 -44 -211 -82 -246 -115
-51 -46 -52 -54 -52 -386 l0 -310 28 0 c19 1 33 10 47 32 21 33 28 37 175 83
104 33 187 75 235 116 l35 31 0 319 c0 175 -3 319 -7 319 -5 -1 -29 -12 -54
-25z"/>
<path d="M505 3510 c-3 -5 1 -20 9 -32 14 -19 16 -19 22 -5 12 32 -15 64 -31
37z"/>
<path d="M460 3389 c0 -5 5 -7 10 -4 6 3 10 8 10 11 0 2 -4 4 -10 4 -5 0 -10
-5 -10 -11z"/>
<path d="M4050 3334 c0 -11 7 -29 16 -40 14 -18 15 -18 8 6 -3 14 -10 32 -15
40 -7 12 -8 11 -9 -6z"/>
<path d="M4140 3173 c0 -5 16 -28 35 -52 37 -46 41 -57 26 -63 -6 -2 -4 -26 4
-58 11 -51 13 -53 20 -27 13 48 0 126 -24 148 -12 12 -20 27 -17 34 2 7 -2 16
-10 19 -21 8 -34 7 -34 -1z"/>
<path d="M4210 2833 c1 -5 9 -23 19 -42 l18 -34 6 33 c10 48 9 50 -18 50 -14
0 -25 -3 -25 -7z"/>
<path d="M4235 2680 c4 -12 18 -38 31 -57 l24 -36 0 35 c0 27 -7 39 -31 57
l-31 23 7 -22z"/>
<path d="M201 2345 c0 -33 4 -67 9 -75 12 -18 12 59 0 105 -6 24 -8 18 -9 -30z"/>
<path d="M4268 2375 c-3 -6 1 -23 8 -40 14 -32 17 -17 5 25 -4 14 -9 20 -13
15z"/>
<path d="M4482 2266 c-7 -16 -10 -38 -6 -48 10 -33 26 -5 22 38 l-4 39 -12
-29z"/>
<path d="M4389 2133 c-7 -32 -12 -92 -11 -133 2 -41 -2 -88 -7 -105 l-9 -30
-1 28 c-1 15 -10 37 -20 48 -19 21 -20 21 -51 -77 -24 -74 -34 -126 -39 -204
-5 -84 -9 -105 -21 -105 -12 0 -15 13 -13 65 l3 65 -17 -35 c-122 -255 -159
-328 -208 -405 -60 -95 -129 -189 -178 -242 -24 -26 -30 -41 -32 -89 -2 -41
-7 -61 -20 -70 -15 -11 -16 -16 -5 -29 11 -14 8 -21 -24 -54 -20 -20 -51 -71
-69 -112 -47 -107 -69 -141 -89 -136 -9 3 -54 -25 -109 -68 -84 -66 -135 -93
-149 -78 -3 2 8 14 25 26 84 61 119 106 74 94 -20 -5 -21 -3 -16 37 l6 44 -66
-44 c-37 -24 -70 -44 -74 -44 -4 0 -43 -17 -86 -37 -43 -21 -82 -39 -88 -42
-5 -2 8 16 30 39 24 26 33 40 22 36 -10 -3 -25 -6 -33 -6 -8 0 -14 -10 -14
-25 0 -19 -5 -25 -21 -25 -18 0 -20 4 -15 25 8 30 -2 31 -54 5 -49 -25 -54
-33 -54 -99 -1 -51 -4 -57 -34 -77 -24 -16 -42 -21 -65 -17 -23 3 -46 -3 -81
-21 -51 -27 -68 -28 -46 -1 7 8 9 22 6 31 -6 15 -9 15 -29 -4 -20 -18 -33 -20
-129 -19 -60 1 -108 5 -108 9 0 3 15 16 33 28 17 12 24 19 15 16 -9 -2 -36
-10 -60 -16 -63 -16 -121 -40 -140 -57 -16 -14 -33 -14 -145 -4 -166 15 -180
18 -161 34 9 7 18 20 22 30 4 14 2 17 -12 13 -58 -17 -217 -35 -342 -38 l-145
-3 -3 28 c-2 16 2 35 9 44 11 13 10 18 -10 34 -20 16 -38 23 -61 21 -93 -6
-190 -32 -190 -52 0 -7 111 -57 146 -66 26 -7 33 -24 9 -24 -8 0 -44 10 -80
21 -36 12 -68 19 -72 15 -10 -10 78 -85 100 -86 30 0 137 -33 137 -41 0 -19
62 -38 155 -48 55 -7 105 -12 110 -13 13 -2 225 60 245 71 8 5 14 16 13 26 -1
15 7 16 80 10 45 -4 85 -10 90 -14 12 -12 -35 -73 -73 -92 -20 -11 -55 -19
-84 -19 -43 0 -47 -2 -35 -16 11 -13 27 -15 82 -11 72 5 124 31 119 59 -7 41
71 68 197 68 88 0 167 9 246 27 28 6 29 5 15 -12 -39 -47 -134 -84 -169 -65
-12 6 -31 5 -55 -1 -34 -9 -37 -13 -34 -42 3 -30 1 -32 -45 -40 -30 -6 -57 -6
-70 0 -21 10 -21 10 8 26 25 14 27 16 10 18 -11 1 -26 1 -33 0 -18 -3 -102
-63 -102 -74 0 -32 482 72 835 181 204 63 251 84 390 170 374 233 675 564 851
938 125 267 183 470 191 671 6 129 5 132 -21 177 -15 25 -29 46 -31 46 -2 0
-9 -26 -16 -57z"/>
<path d="M838 2091 c-38 -4 -70 -10 -73 -12 -7 -7 -25 -215 -25 -288 l0 -64
38 6 c81 13 263 19 346 12 l87 -7 -5 -26 c-3 -15 -13 -64 -22 -109 l-17 -83
-36 0 c-44 0 -168 21 -286 49 -48 12 -90 19 -93 17 -2 -3 -1 -32 3 -65 l7 -60
46 -8 c68 -11 413 -7 443 5 30 12 33 30 45 235 l7 117 -49 -7 c-60 -10 -410
-10 -419 -1 -6 6 20 166 29 175 9 10 224 43 319 49 85 6 97 9 97 25 0 10 -9
23 -20 29 -25 14 -331 21 -422 11z"/>
<path d="M1472 2092 c-37 -4 -66 -13 -72 -21 -14 -24 -23 -217 -17 -396 5
-171 15 -225 40 -225 11 0 16 31 21 137 4 76 10 141 14 145 12 12 222 21 305
14 91 -9 88 -2 56 -152 -37 -169 -39 -152 23 -146 86 7 83 -5 83 305 0 150 -3
284 -7 298 -4 15 -15 30 -25 33 -24 10 -348 15 -421 8z m394 -174 c-4 -62 -9
-114 -12 -117 -10 -11 -358 -12 -374 -2 -12 8 -12 21 -1 88 7 43 16 81 20 86
15 16 234 53 330 56 l44 1 -7 -112z"/>
<path d="M2108 2091 c-38 -4 -70 -10 -72 -12 -3 -2 -10 -73 -16 -157 -12 -156
0 -436 19 -455 18 -18 246 -29 376 -19 69 5 128 12 130 14 7 6 25 223 25 292
0 56 -1 58 -24 52 -13 -3 -69 -9 -125 -12 -89 -6 -101 -9 -101 -26 0 -14 8
-18 34 -18 18 0 54 -3 80 -6 l47 -7 -6 -41 c-4 -23 -14 -72 -22 -110 l-15 -69
-72 6 c-87 8 -267 44 -280 57 -11 11 6 182 30 314 l16 84 81 15 c101 20 237
37 294 37 39 0 43 2 43 24 0 16 -7 26 -22 30 -37 10 -347 15 -420 7z"/>
<path d="M2738 2090 c-38 -3 -71 -9 -74 -13 -17 -16 -27 -315 -16 -459 6 -83
13 -153 16 -155 3 -3 62 -10 131 -15 131 -10 358 1 376 19 19 19 31 303 19
458 -6 82 -13 151 -15 154 -17 17 -309 24 -437 11z m389 -172 c-6 -97 -27
-242 -53 -367 l-7 -34 -71 6 c-74 7 -260 42 -278 53 -13 8 -4 153 18 279 22
129 18 122 82 136 84 17 221 37 271 38 l44 1 -6 -112z"/>
<path d="M3343 2083 c-41 -4 -42 -5 -50 -51 -10 -60 -10 -485 0 -534 7 -35 11
-37 55 -44 61 -10 353 -10 414 0 44 7 48 9 55 44 10 48 10 496 0 545 -6 26
-13 37 -26 37 -16 0 -19 -13 -25 -112 -6 -112 -39 -355 -54 -413 -7 -25 -14
-31 -42 -33 -35 -4 -189 19 -275 41 l-50 12 3 60 c5 91 29 249 56 358 l23 97
-21 -2 c-12 -1 -40 -3 -63 -5z"/>
<path d="M320 1764 c0 -19 24 -44 44 -44 38 0 37 11 -2 31 -40 21 -42 22 -42
13z"/>
<path d="M595 1233 c26 -23 65 -31 65 -14 0 16 -31 34 -61 35 l-30 1 26 -22z"/>
<path d="M550 1107 c0 -21 11 -47 19 -47 13 0 10 39 -5 51 -11 9 -14 8 -14 -4z"/>
<path d="M985 760 c-3 -5 -1 -10 4 -10 6 0 11 5 11 10 0 6 -2 10 -4 10 -3 0
-8 -4 -11 -10z"/>
<path d="M3384 645 c-17 -13 -17 -14 -2 -15 9 0 20 5 23 11 11 17 0 20 -21 4z"/>
<path d="M1310 535 c0 -8 12 -21 28 -28 35 -19 131 -41 139 -33 4 3 0 6 -8 6
-8 0 -47 16 -87 35 -53 25 -72 30 -72 20z"/>
<path d="M1535 450 c54 -22 75 -25 75 -11 0 12 -19 18 -76 26 l-49 6 50 -21z"/>
<path d="M1200 430 c8 -5 20 -10 25 -10 6 0 3 5 -5 10 -8 5 -19 10 -25 10 -5
0 -3 -5 5 -10z"/>
<path d="M1650 340 c0 -11 42 -31 49 -24 2 2 -2 10 -9 19 -14 17 -40 20 -40 5z"/>
<path d="M2870 339 c0 -5 5 -7 10 -4 6 3 10 8 10 11 0 2 -4 4 -10 4 -5 0 -10
-5 -10 -11z"/>
<path d="M2143 313 c-7 -2 -13 -13 -13 -23 0 -10 -6 -21 -12 -23 -7 -3 1 -6
17 -6 33 -1 41 3 69 37 l19 22 -34 -1 c-19 0 -40 -3 -46 -6z"/>
<path d="M2908 103 c6 -2 18 -2 25 0 6 3 1 5 -13 5 -14 0 -19 -2 -12 -5z"/>
</g>
</svg>
